<?xml version="1.0" encoding="UTF-8"?>
<svg xmlns="http://www.w3.org/2000/svg" xmlns:xlink="http://www.w3.org/1999/xlink" width="50px" height="50px" viewBox="0 0 50 50" version="1.1">
<g id="surface1">
<path style=" stroke:none;fill-rule:evenodd;fill:rgb(60.784314%,35.294118%,23.137255%);fill-opacity:1;" d="M 39.976562 4.261719 C 40.453125 4.261719 40.929688 4.261719 41.40625 4.261719 C 41.40625 4.738281 41.40625 5.214844 41.40625 5.691406 C 41.882812 5.691406 42.355469 5.691406 42.832031 5.691406 C 42.832031 6.167969 42.832031 6.644531 42.832031 7.117188 C 43.308594 7.117188 43.785156 7.117188 44.261719 7.117188 C 44.261719 7.59375 44.261719 8.070312 44.261719 8.546875 C 44.261719 9.023438 44.261719 9.5 44.261719 9.976562 C 43.785156 9.976562 43.308594 9.976562 42.832031 9.976562 C 42.832031 9.5 42.832031 9.023438 42.832031 8.546875 C 42.355469 8.546875 41.882812 8.546875 41.40625 8.546875 C 41.40625 8.070312 41.40625 7.59375 41.40625 7.117188 C 39.5 7.117188 37.59375 7.117188 35.691406 7.117188 C 35.691406 7.59375 35.691406 8.070312 35.691406 8.546875 C 35.214844 8.546875 34.738281 8.546875 34.261719 8.546875 C 34.261719 9.023438 34.261719 9.5 34.261719 9.976562 C 33.785156 9.976562 33.308594 9.976562 32.832031 9.976562 C 32.832031 10.929688 32.832031 11.882812 32.832031 12.832031 C 32.355469 12.832031 31.882812 12.832031 31.40625 12.832031 C 31.40625 13.308594 31.40625 13.785156 31.40625 14.261719 C 30.929688 14.261719 30.453125 14.261719 29.976562 14.261719 C 29.976562 14.738281 29.976562 15.214844 29.976562 15.691406 C 29.5 15.691406 29.023438 15.691406 28.546875 15.691406 C 28.546875 13.785156 28.546875 11.882812 28.546875 9.976562 C 29.023438 9.976562 29.5 9.976562 29.976562 9.976562 C 29.976562 9.023438 29.976562 8.070312 29.976562 7.117188 C 30.453125 7.117188 30.929688 7.117188 31.40625 7.117188 C 31.40625 6.644531 31.40625 6.167969 31.40625 5.691406 C 31.882812 5.691406 32.355469 5.691406 32.832031 5.691406 C 32.832031 5.214844 32.832031 4.738281 32.832031 4.261719 C 35.214844 4.261719 37.59375 4.261719 39.976562 4.261719 Z M 39.976562 4.261719 "/>
<path style=" stroke:none;fill-rule:evenodd;fill:rgb(76.078431%,85.882353%,85.490196%);fill-opacity:1;" d="M 41.40625 8.546875 C 41.882812 8.546875 42.355469 8.546875 42.832031 8.546875 C 42.832031 9.023438 42.832031 9.5 42.832031 9.976562 C 43.308594 9.976562 43.785156 9.976562 44.261719 9.976562 C 44.261719 10.453125 44.261719 10.929688 44.261719 11.40625 C 44.261719 13.308594 44.261719 15.214844 44.261719 17.117188 C 43.785156 17.117188 43.308594 17.117188 42.832031 17.117188 C 42.832031 17.59375 42.832031 18.070312 42.832031 18.546875 C 40.929688 18.546875 39.023438 18.546875 37.117188 18.546875 C 37.117188 18.070312 37.117188 17.59375 37.117188 17.117188 C 36.167969 17.117188 35.214844 17.117188 34.261719 17.117188 C 34.261719 16.644531 34.261719 16.167969 34.261719 15.691406 C 33.785156 15.691406 33.308594 15.691406 32.832031 15.691406 C 32.832031 14.738281 32.832031 13.785156 32.832031 12.832031 C 32.832031 11.882812 32.832031 10.929688 32.832031 9.976562 C 33.308594 9.976562 33.785156 9.976562 34.261719 9.976562 C 34.261719 9.5 34.261719 9.023438 34.261719 8.546875 C 34.738281 8.546875 35.214844 8.546875 35.691406 8.546875 C 35.691406 8.070312 35.691406 7.59375 35.691406 7.117188 C 37.59375 7.117188 39.5 7.117188 41.40625 7.117188 C 41.40625 7.59375 41.40625 8.070312 41.40625 8.546875 Z M 41.40625 8.546875 "/>
<path style=" stroke:none;fill-rule:evenodd;fill:rgb(0%,0%,0%);fill-opacity:1;" d="M 39.976562 8.546875 C 39.976562 9.023438 39.976562 9.5 39.976562 9.976562 C 40.453125 9.976562 40.929688 9.976562 41.40625 9.976562 C 41.40625 10.453125 41.40625 10.929688 41.40625 11.40625 C 40.453125 11.40625 39.5 11.40625 38.546875 11.40625 C 38.546875 10.453125 38.546875 9.5 38.546875 8.546875 C 39.023438 8.546875 39.5 8.546875 39.976562 8.546875 Z M 39.976562 8.546875 "/>
<path style=" stroke:none;fill-rule:evenodd;fill:rgb(99.607843%,100%,99.607843%);fill-opacity:1;" d="M 39.976562 8.546875 C 40.453125 8.546875 40.929688 8.546875 41.40625 8.546875 C 41.40625 9.023438 41.40625 9.5 41.40625 9.976562 C 40.929688 9.976562 40.453125 9.976562 39.976562 9.976562 C 39.976562 9.5 39.976562 9.023438 39.976562 8.546875 Z M 39.976562 8.546875 "/>
<path style=" stroke:none;fill-rule:evenodd;fill:rgb(9.411765%,10.196078%,9.411765%);fill-opacity:1;" d="M 44.261719 8.546875 C 45.691406 8.546875 47.117188 8.546875 48.546875 8.546875 C 48.546875 9.023438 48.546875 9.5 48.546875 9.976562 C 48.070312 9.976562 47.59375 9.976562 47.117188 9.976562 C 47.117188 10.453125 47.117188 10.929688 47.117188 11.40625 C 46.644531 11.40625 46.167969 11.40625 45.691406 11.40625 C 45.214844 11.40625 44.738281 11.40625 44.261719 11.40625 C 44.261719 10.929688 44.261719 10.453125 44.261719 9.976562 C 44.261719 9.5 44.261719 9.023438 44.261719 8.546875 Z M 44.261719 8.546875 "/>
<path style=" stroke:none;fill-rule:evenodd;fill:rgb(46.666667%,45.490196%,34.117647%);fill-opacity:1;" d="M 44.261719 11.40625 C 44.738281 11.40625 45.214844 11.40625 45.691406 11.40625 C 45.691406 13.308594 45.691406 15.214844 45.691406 17.117188 C 45.214844 17.117188 44.738281 17.117188 44.261719 17.117188 C 44.261719 15.214844 44.261719 13.308594 44.261719 11.40625 Z M 44.261719 11.40625 "/>
<path style=" stroke:none;fill-rule:evenodd;fill:rgb(88.627451%,78.039216%,7.45098%);fill-opacity:1;" d="M 32.832031 12.832031 C 32.832031 13.785156 32.832031 14.738281 32.832031 15.691406 C 33.308594 15.691406 33.785156 15.691406 34.261719 15.691406 C 34.261719 16.167969 34.261719 16.644531 34.261719 17.117188 C 35.214844 17.117188 36.167969 17.117188 37.117188 17.117188 C 37.117188 17.59375 37.117188 18.070312 37.117188 18.546875 C 39.023438 18.546875 40.929688 18.546875 42.832031 18.546875 C 42.832031 21.40625 42.832031 24.261719 42.832031 27.117188 C 42.355469 27.117188 41.882812 27.117188 41.40625 27.117188 C 40.929688 27.117188 40.453125 27.117188 39.976562 27.117188 C 39.976562 27.59375 39.976562 28.070312 39.976562 28.546875 C 39.5 28.546875 39.023438 28.546875 38.546875 28.546875 C 38.546875 29.023438 38.546875 29.5 38.546875 29.976562 C 38.070312 29.976562 37.59375 29.976562 37.117188 29.976562 C 37.117188 30.453125 37.117188 30.929688 37.117188 31.40625 C 33.785156 31.40625 30.453125 31.40625 27.117188 31.40625 C 27.117188 30.929688 27.117188 30.453125 27.117188 29.976562 C 28.070312 29.976562 29.023438 29.976562 29.976562 29.976562 C 29.976562 29.5 29.976562 29.023438 29.976562 28.546875 C 30.929688 28.546875 31.882812 28.546875 32.832031 28.546875 C 32.832031 28.070312 32.832031 27.59375 32.832031 27.117188 C 33.308594 27.117188 33.785156 27.117188 34.261719 27.117188 C 34.261719 26.644531 34.261719 26.167969 34.261719 25.691406 C 34.738281 25.691406 35.214844 25.691406 35.691406 25.691406 C 35.691406 24.261719 35.691406 22.832031 35.691406 21.40625 C 34.738281 21.40625 33.785156 21.40625 32.832031 21.40625 C 32.832031 20.929688 32.832031 20.453125 32.832031 19.976562 C 32.355469 19.976562 31.882812 19.976562 31.40625 19.976562 C 31.40625 19.5 31.40625 19.023438 31.40625 18.546875 C 30.929688 18.546875 30.453125 18.546875 29.976562 18.546875 C 29.976562 17.59375 29.976562 16.644531 29.976562 15.691406 C 29.976562 15.214844 29.976562 14.738281 29.976562 14.261719 C 30.453125 14.261719 30.929688 14.261719 31.40625 14.261719 C 31.40625 13.785156 31.40625 13.308594 31.40625 12.832031 C 31.882812 12.832031 32.355469 12.832031 32.832031 12.832031 Z M 32.832031 12.832031 "/>
<path style=" stroke:none;fill-rule:evenodd;fill:rgb(31.372549%,58.039216%,56.862745%);fill-opacity:1;" d="M 28.546875 15.691406 C 29.023438 15.691406 29.5 15.691406 29.976562 15.691406 C 29.976562 16.644531 29.976562 17.59375 29.976562 18.546875 C 30.453125 18.546875 30.929688 18.546875 31.40625 18.546875 C 31.40625 19.023438 31.40625 19.5 31.40625 19.976562 C 31.882812 19.976562 32.355469 19.976562 32.832031 19.976562 C 32.832031 20.453125 32.832031 20.929688 32.832031 21.40625 C 33.785156 21.40625 34.738281 21.40625 35.691406 21.40625 C 35.691406 22.832031 35.691406 24.261719 35.691406 25.691406 C 35.214844 25.691406 34.738281 25.691406 34.261719 25.691406 C 34.261719 26.167969 34.261719 26.644531 34.261719 27.117188 C 33.785156 27.117188 33.308594 27.117188 32.832031 27.117188 C 32.832031 27.59375 32.832031 28.070312 32.832031 28.546875 C 31.882812 28.546875 30.929688 28.546875 29.976562 28.546875 C 29.976562 29.023438 29.976562 29.5 29.976562 29.976562 C 29.023438 29.976562 28.070312 29.976562 27.117188 29.976562 C 27.117188 29.5 27.117188 29.023438 27.117188 28.546875 C 26.167969 28.546875 25.214844 28.546875 24.261719 28.546875 C 24.261719 28.070312 24.261719 27.59375 24.261719 27.117188 C 23.308594 27.117188 22.355469 27.117188 21.40625 27.117188 C 21.40625 26.644531 21.40625 26.167969 21.40625 25.691406 C 20.453125 25.691406 19.5 25.691406 18.546875 25.691406 C 18.546875 25.214844 18.546875 24.738281 18.546875 24.261719 C 17.59375 24.261719 16.644531 24.261719 15.691406 24.261719 C 15.691406 23.785156 15.691406 23.308594 15.691406 22.832031 C 17.117188 22.832031 18.546875 22.832031 19.976562 22.832031 C 19.976562 22.355469 19.976562 21.882812 19.976562 21.40625 C 20.929688 21.40625 21.882812 21.40625 22.832031 21.40625 C 22.832031 20.929688 22.832031 20.453125 22.832031 19.976562 C 23.308594 19.976562 23.785156 19.976562 24.261719 19.976562 C 24.261719 19.5 24.261719 19.023438 24.261719 18.546875 C 24.738281 18.546875 25.214844 18.546875 25.691406 18.546875 C 25.691406 18.070312 25.691406 17.59375 25.691406 17.117188 C 26.167969 17.117188 26.644531 17.117188 27.117188 17.117188 C 27.117188 16.644531 27.117188 16.167969 27.117188 15.691406 C 27.59375 15.691406 28.070312 15.691406 28.546875 15.691406 Z M 28.546875 15.691406 "/>
<path style=" stroke:none;fill-rule:evenodd;fill:rgb(46.666667%,45.490196%,34.117647%);fill-opacity:1;" d="M 44.261719 17.117188 C 44.261719 20.453125 44.261719 23.785156 44.261719 27.117188 C 43.785156 27.117188 43.308594 27.117188 42.832031 27.117188 C 42.832031 24.261719 42.832031 21.40625 42.832031 18.546875 C 42.832031 18.070312 42.832031 17.59375 42.832031 17.117188 C 43.308594 17.117188 43.785156 17.117188 44.261719 17.117188 Z M 44.261719 17.117188 "/>
<path style=" stroke:none;fill-rule:evenodd;fill:rgb(25.882353%,83.921569%,74.901961%);fill-opacity:1;" d="M 15.691406 24.261719 C 16.644531 24.261719 17.59375 24.261719 18.546875 24.261719 C 18.546875 24.738281 18.546875 25.214844 18.546875 25.691406 C 19.5 25.691406 20.453125 25.691406 21.40625 25.691406 C 21.40625 26.167969 21.40625 26.644531 21.40625 27.117188 C 22.355469 27.117188 23.308594 27.117188 24.261719 27.117188 C 24.261719 27.59375 24.261719 28.070312 24.261719 28.546875 C 25.214844 28.546875 26.167969 28.546875 27.117188 28.546875 C 27.117188 29.023438 27.117188 29.5 27.117188 29.976562 C 27.117188 30.453125 27.117188 30.929688 27.117188 31.40625 C 25.691406 31.40625 24.261719 31.40625 22.832031 31.40625 C 22.832031 31.882812 22.832031 32.355469 22.832031 32.832031 C 22.832031 33.308594 22.832031 33.785156 22.832031 34.261719 C 15.691406 34.261719 8.546875 34.261719 1.40625 34.261719 C 1.40625 33.785156 1.40625 33.308594 1.40625 32.832031 C 3.308594 32.832031 5.214844 32.832031 7.117188 32.832031 C 7.117188 32.355469 7.117188 31.882812 7.117188 31.40625 C 6.167969 31.40625 5.214844 31.40625 4.261719 31.40625 C 4.261719 30.929688 4.261719 30.453125 4.261719 29.976562 C 6.644531 29.976562 9.023438 29.976562 11.40625 29.976562 C 11.40625 29.5 11.40625 29.023438 11.40625 28.546875 C 10.929688 28.546875 10.453125 28.546875 9.976562 28.546875 C 9.976562 28.070312 9.976562 27.59375 9.976562 27.117188 C 9.023438 27.117188 8.070312 27.117188 7.117188 27.117188 C 7.117188 26.644531 7.117188 26.167969 7.117188 25.691406 C 8.546875 25.691406 9.976562 25.691406 11.40625 25.691406 C 11.40625 25.214844 11.40625 24.738281 11.40625 24.261719 C 12.832031 24.261719 14.261719 24.261719 15.691406 24.261719 Z M 15.691406 24.261719 "/>
<path style=" stroke:none;fill-rule:evenodd;fill:rgb(85.490196%,85.882353%,85.490196%);fill-opacity:1;" d="M 41.40625 27.117188 C 41.40625 28.546875 41.40625 29.976562 41.40625 31.40625 C 40.929688 31.40625 40.453125 31.40625 39.976562 31.40625 C 39.976562 31.882812 39.976562 32.355469 39.976562 32.832031 C 39.5 32.832031 39.023438 32.832031 38.546875 32.832031 C 38.546875 33.308594 38.546875 33.785156 38.546875 34.261719 C 38.070312 34.261719 37.59375 34.261719 37.117188 34.261719 C 37.117188 34.738281 37.117188 35.214844 37.117188 35.691406 C 36.167969 35.691406 35.214844 35.691406 34.261719 35.691406 C 34.261719 36.167969 34.261719 36.644531 34.261719 37.117188 C 31.882812 37.117188 29.5 37.117188 27.117188 37.117188 C 26.644531 37.117188 26.167969 37.117188 25.691406 37.117188 C 25.214844 37.117188 24.738281 37.117188 24.261719 37.117188 C 24.261719 36.644531 24.261719 36.167969 24.261719 35.691406 C 24.261719 34.738281 24.261719 33.785156 24.261719 32.832031 C 23.785156 32.832031 23.308594 32.832031 22.832031 32.832031 C 22.832031 32.355469 22.832031 31.882812 22.832031 31.40625 C 24.261719 31.40625 25.691406 31.40625 27.117188 31.40625 C 30.453125 31.40625 33.785156 31.40625 37.117188 31.40625 C 37.117188 30.929688 37.117188 30.453125 37.117188 29.976562 C 37.59375 29.976562 38.070312 29.976562 38.546875 29.976562 C 38.546875 29.5 38.546875 29.023438 38.546875 28.546875 C 39.023438 28.546875 39.5 28.546875 39.976562 28.546875 C 39.976562 28.070312 39.976562 27.59375 39.976562 27.117188 C 40.453125 27.117188 40.929688 27.117188 41.40625 27.117188 Z M 41.40625 27.117188 "/>
<path style=" stroke:none;fill-rule:evenodd;fill:rgb(46.666667%,45.490196%,34.117647%);fill-opacity:1;" d="M 41.40625 27.117188 C 41.882812 27.117188 42.355469 27.117188 42.832031 27.117188 C 42.832031 28.546875 42.832031 29.976562 42.832031 31.40625 C 42.355469 31.40625 41.882812 31.40625 41.40625 31.40625 C 41.40625 29.976562 41.40625 28.546875 41.40625 27.117188 Z M 41.40625 27.117188 "/>
<path style=" stroke:none;fill-rule:evenodd;fill:rgb(46.666667%,45.490196%,34.117647%);fill-opacity:1;" d="M 41.40625 31.40625 C 41.40625 31.882812 41.40625 32.355469 41.40625 32.832031 C 40.929688 32.832031 40.453125 32.832031 39.976562 32.832031 C 39.976562 32.355469 39.976562 31.882812 39.976562 31.40625 C 40.453125 31.40625 40.929688 31.40625 41.40625 31.40625 Z M 41.40625 31.40625 "/>
<path style=" stroke:none;fill-rule:evenodd;fill:rgb(46.666667%,45.490196%,34.117647%);fill-opacity:1;" d="M 22.832031 32.832031 C 23.308594 32.832031 23.785156 32.832031 24.261719 32.832031 C 24.261719 33.785156 24.261719 34.738281 24.261719 35.691406 C 23.785156 35.691406 23.308594 35.691406 22.832031 35.691406 C 22.832031 35.214844 22.832031 34.738281 22.832031 34.261719 C 22.832031 33.785156 22.832031 33.308594 22.832031 32.832031 Z M 22.832031 32.832031 "/>
<path style=" stroke:none;fill-rule:evenodd;fill:rgb(46.666667%,45.490196%,34.117647%);fill-opacity:1;" d="M 39.976562 32.832031 C 39.976562 33.308594 39.976562 33.785156 39.976562 34.261719 C 39.5 34.261719 39.023438 34.261719 38.546875 34.261719 C 38.546875 33.785156 38.546875 33.308594 38.546875 32.832031 C 39.023438 32.832031 39.5 32.832031 39.976562 32.832031 Z M 39.976562 32.832031 "/>
<path style=" stroke:none;fill-rule:evenodd;fill:rgb(46.666667%,45.490196%,34.117647%);fill-opacity:1;" d="M 38.546875 34.261719 C 38.546875 34.738281 38.546875 35.214844 38.546875 35.691406 C 38.070312 35.691406 37.59375 35.691406 37.117188 35.691406 C 37.117188 35.214844 37.117188 34.738281 37.117188 34.261719 C 37.59375 34.261719 38.070312 34.261719 38.546875 34.261719 Z M 38.546875 34.261719 "/>
<path style=" stroke:none;fill-rule:evenodd;fill:rgb(46.666667%,45.490196%,34.117647%);fill-opacity:1;" d="M 24.261719 35.691406 C 24.738281 35.691406 25.214844 35.691406 25.691406 35.691406 C 25.691406 36.167969 25.691406 36.644531 25.691406 37.117188 C 25.691406 36.644531 25.691406 36.167969 25.691406 35.691406 C 25.214844 35.691406 24.738281 35.691406 24.261719 35.691406 Z M 24.261719 35.691406 "/>
<path style=" stroke:none;fill-rule:evenodd;fill:rgb(46.666667%,45.490196%,34.117647%);fill-opacity:1;" d="M 37.117188 35.691406 C 37.117188 36.167969 37.117188 36.644531 37.117188 37.117188 C 36.167969 37.117188 35.214844 37.117188 34.261719 37.117188 C 34.261719 36.644531 34.261719 36.167969 34.261719 35.691406 C 35.214844 35.691406 36.167969 35.691406 37.117188 35.691406 Z M 37.117188 35.691406 "/>
<path style=" stroke:none;fill-rule:evenodd;fill:rgb(69.803922%,42.352941%,5.098039%);fill-opacity:1;" d="M 25.691406 37.117188 C 26.167969 37.117188 26.644531 37.117188 27.117188 37.117188 C 27.117188 37.59375 27.117188 38.070312 27.117188 38.546875 C 26.644531 38.546875 26.167969 38.546875 25.691406 38.546875 C 25.691406 38.070312 25.691406 37.59375 25.691406 37.117188 Z M 25.691406 37.117188 "/>
<path style=" stroke:none;fill-rule:evenodd;fill:rgb(46.666667%,45.490196%,34.117647%);fill-opacity:1;" d="M 27.117188 37.117188 C 29.5 37.117188 31.882812 37.117188 34.261719 37.117188 C 34.261719 37.59375 34.261719 38.070312 34.261719 38.546875 C 33.785156 38.546875 33.308594 38.546875 32.832031 38.546875 C 31.40625 38.546875 29.976562 38.546875 28.546875 38.546875 C 28.070312 38.546875 27.59375 38.546875 27.117188 38.546875 C 27.117188 38.070312 27.117188 37.59375 27.117188 37.117188 Z M 27.117188 37.117188 "/>
<path style=" stroke:none;fill-rule:evenodd;fill:rgb(69.803922%,42.352941%,5.098039%);fill-opacity:1;" d="M 27.117188 38.546875 C 27.59375 38.546875 28.070312 38.546875 28.546875 38.546875 C 28.546875 39.023438 28.546875 39.5 28.546875 39.976562 C 28.070312 39.976562 27.59375 39.976562 27.117188 39.976562 C 27.117188 39.5 27.117188 39.023438 27.117188 38.546875 Z M 27.117188 38.546875 "/>
<path style=" stroke:none;fill-rule:evenodd;fill:rgb(69.803922%,42.352941%,5.098039%);fill-opacity:1;" d="M 32.832031 38.546875 C 33.308594 38.546875 33.785156 38.546875 34.261719 38.546875 C 34.261719 39.023438 34.261719 39.5 34.261719 39.976562 C 33.785156 39.976562 33.308594 39.976562 32.832031 39.976562 C 32.832031 39.5 32.832031 39.023438 32.832031 38.546875 Z M 32.832031 38.546875 "/>
<path style=" stroke:none;fill-rule:evenodd;fill:rgb(69.803922%,42.352941%,5.098039%);fill-opacity:1;" d="M 28.546875 39.976562 C 29.023438 39.976562 29.5 39.976562 29.976562 39.976562 C 29.976562 40.453125 29.976562 40.929688 29.976562 41.40625 C 29.976562 41.882812 29.976562 42.355469 29.976562 42.832031 C 29.5 42.832031 29.023438 42.832031 28.546875 42.832031 C 28.546875 42.355469 28.546875 41.882812 28.546875 41.40625 C 28.546875 40.929688 28.546875 40.453125 28.546875 39.976562 Z M 28.546875 39.976562 "/>
<path style=" stroke:none;fill-rule:evenodd;fill:rgb(69.803922%,42.352941%,5.098039%);fill-opacity:1;" d="M 34.261719 39.976562 C 34.738281 39.976562 35.214844 39.976562 35.691406 39.976562 C 35.691406 40.453125 35.691406 40.929688 35.691406 41.40625 C 35.691406 41.882812 35.691406 42.355469 35.691406 42.832031 C 35.214844 42.832031 34.738281 42.832031 34.261719 42.832031 C 34.261719 42.355469 34.261719 41.882812 34.261719 41.40625 C 34.261719 40.929688 34.261719 40.453125 34.261719 39.976562 Z M 34.261719 39.976562 "/>
</g>
</svg>
